<svg width="17" height="18" viewBox="0 0 17 18" fill="none" xmlns="http://www.w3.org/2000/svg">
<g id="ic:round-less-than">
<path id="Vector" fill-rule="evenodd" clip-rule="evenodd" d="M12.0252 5.64008L8.4884 10.9453L4.95158 5.64008C4.90513 5.57041 4.84542 5.51057 4.77585 5.46398C4.70628 5.41739 4.62821 5.38495 4.5461 5.36853C4.464 5.35211 4.37946 5.35202 4.29732 5.36827C4.21518 5.38452 4.13704 5.41679 4.06737 5.46324C3.99771 5.50968 3.93787 5.5694 3.89127 5.63897C3.84468 5.70854 3.81225 5.78661 3.79583 5.86872C3.77941 5.95082 3.77932 6.03536 3.79557 6.1175C3.81182 6.19964 3.84409 6.27777 3.89053 6.34744L7.89988 12.3615C7.96447 12.4583 8.05199 12.5378 8.15466 12.5927C8.25732 12.6476 8.37196 12.6764 8.4884 12.6764C8.60484 12.6764 8.71948 12.6476 8.82215 12.5927C8.92482 12.5378 9.01233 12.4583 9.07693 12.3615L13.0863 6.34744C13.1327 6.27777 13.165 6.19964 13.1812 6.1175C13.1975 6.03536 13.1974 5.95082 13.181 5.86872C13.1646 5.78661 13.1321 5.70854 13.0855 5.63897C13.0389 5.5694 12.9791 5.50968 12.9094 5.46324C12.8398 5.41679 12.7616 5.38452 12.6795 5.36827C12.5973 5.35202 12.5128 5.35211 12.4307 5.36853C12.3486 5.38495 12.2705 5.41739 12.201 5.46398C12.1314 5.51057 12.0717 5.57041 12.0252 5.64008Z" fill="white"/>
</g>
</svg>
